<svg id="Layer_1" data-name="Layer 1" xmlns="http://www.w3.org/2000/svg" viewBox="0 0 1920 343.2"><defs><style>.cls-1{fill:#5bbb5b;}.cls-2{fill:#2e7339;}.cls-3{fill:#eaad82;}.cls-4{fill:#c08963;}.cls-5,.cls-6{fill:#231f20;}.cls-5{opacity:0.1;}.cls-6{fill-opacity:0.1;}.cls-7{fill:#a9d03e;}</style></defs><title>footerplants</title><ellipse class="cls-1" cx="1487.63" cy="124.35" rx="36.81" ry="63.76"/><path class="cls-2" d="M1524.44,181.15a73.57,73.57,0,0,1-36.81,63.76V117.39A73.6,73.6,0,0,1,1524.44,181.15Z" transform="translate(0 -56.8)"/><ellipse class="cls-1" cx="1457.19" cy="199.33" rx="36.81" ry="63.76" transform="matrix(0.99, -0.17, 0.17, 0.99, -12.75, 191.52)"/><path class="cls-2" d="M1493.47,193.13a73.58,73.58,0,0,1-25.54,69.05l-21.48-125.7A73.58,73.58,0,0,1,1493.47,193.13Z" transform="translate(0 -56.8)"/><ellipse class="cls-1" cx="1519.89" cy="199.33" rx="63.76" ry="36.81" transform="translate(1043.75 1599.61) rotate(-79.38)"/><path class="cls-2" d="M1556.07,206.12A73.58,73.58,0,0,1,1508.14,262l23.51-125.34A73.59,73.59,0,0,1,1556.07,206.12Z" transform="translate(0 -56.8)"/><path class="cls-3" d="M1559.24,256.79l-.58,11.66-6.25,124.83a7.06,7.06,0,0,1-7.06,6.72H1429.92a7.07,7.07,0,0,1-7.07-6.72l-6.24-124.83-.58-11.66Z" transform="translate(0 -56.8)"/><path class="cls-3" d="M1574.3,238.48v12.87a5.43,5.43,0,0,1-4.59,5.37,4.8,4.8,0,0,1-.85.07H1406.41a4.8,4.8,0,0,1-.85-.07,5.43,5.43,0,0,1-4.59-5.37V238.48a5.43,5.43,0,0,1,5.44-5.44h162.45A5.44,5.44,0,0,1,1574.3,238.48Z" transform="translate(0 -56.8)"/><path class="cls-4" d="M1569.71,256.72a4.8,4.8,0,0,1-.85.07h-9.62l-.58,11.66H1416.61l-.58-11.66h-9.62a4.8,4.8,0,0,1-.85-.07Z" transform="translate(0 -56.8)"/><path class="cls-5" d="M1574.3,238.48v12.87a5.43,5.43,0,0,1-4.59,5.37,4.8,4.8,0,0,1-.85.07h-9.62l-.58,11.66-6.25,124.83a7.06,7.06,0,0,1-7.06,6.72h-57.71V233h81.22A5.44,5.44,0,0,1,1574.3,238.48Z" transform="translate(0 -56.8)"/><path class="cls-2" d="M1727.92,272.44h-42.73c-2.33-2.31-5.45-4.33-6.17-7.61-1.16-5.24,4.81-12.82,2.74-18s-11.59-6.51-14.26-11.36,1.35-13.58-1.74-18.15-12.76-4.24-16.11-8.5-.8-13.67-4.34-17.71c-3.71-4.22-13.33-2.82-17-6.6-4-4.17-2.25-13.7-5.91-17.24-4.43-4.26-14-2.23-17.42-5.41-7.88-7.29-9.75-10.42-8-10.42,7.06,0,14.64-7.4,21.4-6.34,7,1.09,11.87,10.47,18.43,12.61s16.15-2.54,22.32.59,8,13.63,13.6,17.7,16.12,2.56,21,7.46,3.41,15.4,7.52,21,14.54,7.35,17.72,13.58-1.53,15.65.65,22.31,11.55,11.44,12.65,18.39C1733.09,263.68,1729.79,267.84,1727.92,272.44Z" transform="translate(0 -56.8)"/><path class="cls-1" d="M1629.69,161.19c9.86,1.68,30.73,24.63,39.1,29.43,8.54,4.91,19.27,7.51,25.59,15s7.07,18.42,10.48,27.73c3.3,9,7.86,20.27,7.88,30.38-13.33,2.31-5.92-12.88-15.91-24.77-5.32-6.34-15.16-10.34-21.21-17.54s-8.31-17.58-13.65-23.9C1652,185.69,1629.83,161.16,1629.69,161.19Z" transform="translate(0 -56.8)"/><path class="cls-2" d="M1782.13,272.44H1731c-2.79-2.76-6.53-5.19-7.4-9.12-1.38-6.28,5.77-15.35,3.29-21.53-2.38-6-13.88-7.8-17.08-13.61s1.61-16.26-2.09-21.73-15.29-5.08-19.3-10.19-1-16.38-5.2-21.21c-4.44-5.06-16-3.38-20.35-7.92-4.81-5-2.7-16.4-7.08-20.64-5.3-5.11-16.76-2.68-20.87-6.49-9.44-8.74-11.68-12.48-9.59-12.48,8.46,0,17.53-8.87,25.63-7.6,8.35,1.32,14.23,12.55,22.08,15.11s19.35-3,26.74.7,9.58,16.34,16.29,21.22,19.31,3.06,25.21,8.93,4.08,18.45,9,25.19,17.43,8.8,21.24,16.26-1.84,18.74.77,26.73,13.84,13.7,15.16,22C1788.33,261.94,1784.38,266.93,1782.13,272.44Z" transform="translate(0 -56.8)"/><path class="cls-1" d="M1664.46,139.16c11.81,2,36.81,29.51,46.84,35.26,10.23,5.88,23.09,9,30.65,18s8.47,22.07,12.57,33.22c3.94,10.76,9.41,24.28,9.44,36.4-16,2.76-7.11-15.43-19.07-29.69-6.37-7.58-18.16-12.38-25.41-21s-10-21.07-16.34-28.63C1691.18,168.52,1664.63,139.13,1664.46,139.16Z" transform="translate(0 -56.8)"/><path class="cls-2" d="M1788.64,273.16h42.67c2.32-2.31,5.44-4.33,6.16-7.6,1.15-5.24-4.8-12.81-2.74-17.95s11.57-6.51,14.24-11.35-1.34-13.56,1.74-18.12,12.75-4.23,16.09-8.49.8-13.65,4.34-17.68c3.7-4.22,13.31-2.82,17-6.6,4-4.16,2.25-13.68,5.9-17.21,4.43-4.26,14-2.23,17.4-5.41,7.87-7.28,9.74-10.4,8-10.4-7.05,0-14.62-7.4-21.37-6.34-7,1.1-11.86,10.46-18.4,12.6s-16.14-2.54-22.3.58-8,13.62-13.58,17.69-16.09,2.55-21,7.45-3.41,15.37-7.51,21-14.53,7.34-17.7,13.56,1.53,15.62-.65,22.28-11.53,11.42-12.63,18.37C1783.47,264.4,1786.77,268.57,1788.64,273.16Z" transform="translate(0 -56.8)"/><path class="cls-1" d="M1886.74,162.05c-9.85,1.69-30.69,24.6-39,29.4-8.53,4.89-19.25,7.5-25.56,15s-7.06,18.4-10.47,27.7c-3.29,9-7.85,20.24-7.87,30.34,13.32,2.31,5.92-12.86,15.89-24.74,5.31-6.33,15.15-10.33,21.19-17.51s8.3-17.57,13.62-23.87C1864.46,186.52,1886.59,162,1886.74,162.05Z" transform="translate(0 -56.8)"/><path class="cls-2" d="M1757.65,291.33,1806,272.8c1.63-3.63,4.28-7.27,3.67-11.29-1-6.43-11-12.4-10.9-19.12.08-6.52,10.28-12.39,11.19-19s-7.41-14.77-5.9-21.26,12.59-10.34,14.53-16.61-5-15.8-2.78-21.89c2.36-6.39,13.85-9,16.33-14.84,2.74-6.46-3.39-16.46-.79-22,3.16-6.74,14.85-8.6,17.34-13.68,5.74-11.66,6.51-16,4.54-15.25-8,3.07-19.76-2-26.94,2.12-7.4,4.26-8.88,17-15.36,22.25s-19.36,4.14-25,10.35-3.12,18.88-7.69,25.91-17.11,9.88-20.55,17.56,2.83,18.88.62,27-13.25,14.62-14.14,23,8.52,17,8.95,25.5-8.1,17.94-6.32,26.27C1748,283.66,1753.54,286.94,1757.65,291.33Z" transform="translate(0 -56.8)"/><path class="cls-1" d="M1820.42,123c-10.41,6.19-24.05,41.18-31.43,50.24-7.53,9.25-18.52,16.85-22.42,28s0,23.89.18,35.9c.17,11.58-.09,26.31,4.27,37.76,16.07-3.18,1.11-17.13,7.24-34.91,3.26-9.46,12.65-18.27,16.37-29s1.77-23.49,5-32.94C1805.84,160.33,1820.25,123,1820.42,123Z" transform="translate(0 -56.8)"/><path class="cls-2" d="M1758.46,301.36,1803.22,263c.37-4.51,1.83-9.44-.36-13.52-3.5-6.53-16.55-9.11-19-16.36-2.4-7,6.3-17.23,4.75-24.71-1.53-7.32-13.6-13-14.46-20.57s9.57-15.9,9.25-23.38c-.31-7.64-11.44-15-11.35-22.44.1-7.76,11.44-14.92,11.87-22.17.47-8-9.93-16.37-9.27-23.36.82-8.45,12.65-14.91,13.39-21.32,1.71-14.71.87-19.66-1-18.1-7.41,6.34-22,5.38-28.12,12.56-6.32,7.4-3,21.63-8,29.75s-19.2,11.84-22.87,20.66,3.87,21.46,1.65,30.75-14.59,17.15-15.35,26.71,10.25,19.19,11,28.77-8.65,20.75-6.39,30.14,15.65,15,19.35,24-1.84,22.36,3.25,30.62C1745.17,296.81,1752.36,298.22,1758.46,301.36Z" transform="translate(0 -56.8)"/><path class="cls-1" d="M1761.53,96.61c-8.82,10.63-10.1,53.4-14.56,66-4.55,12.8-13.45,25.16-13.36,38.66s9.13,25.65,13.9,38.47c4.61,12.37,10,28.29,19,38.91,16-9.55-5.35-18.81-5.57-40.24-.11-11.41,6.61-24.45,6.49-37.42s-7.07-25.88-7.15-37.28C1760.14,142.32,1761.35,96.72,1761.53,96.61Z" transform="translate(0 -56.8)"/><path class="cls-3" d="M1842.76,291l-.26,1.59-2,11.66-14.81,88.82a8.29,8.29,0,0,1-8.18,6.92H1701a8.29,8.29,0,0,1-8.18-6.92L1678,304.26l-2-11.66-.26-1.59Z" transform="translate(0 -56.8)"/><path class="cls-3" d="M1857.44,274v13.56a5.06,5.06,0,0,1-5.06,5.06H1666.17a5.05,5.05,0,0,1-5.05-5.06V274a5.05,5.05,0,0,1,5.05-5.06h186.21A5.06,5.06,0,0,1,1857.44,274Z" transform="translate(0 -56.8)"/><polygon class="cls-4" points="1842.5 235.8 1840.55 247.46 1678.01 247.46 1676.06 235.8 1842.5 235.8"/><path class="cls-6" d="M1857.44,274v13.56a5.06,5.06,0,0,1-5.06,5.06h-9.88l-2,11.66-14.81,88.82a8.29,8.29,0,0,1-8.18,6.92h-58.28V268.92h93.1A5.06,5.06,0,0,1,1857.44,274Z" transform="translate(0 -56.8)"/><ellipse class="cls-1" cx="1172.71" cy="219.45" rx="36.81" ry="51.45" transform="translate(-15.53 269.85) rotate(-15.75)"/><path class="cls-2" d="M1208.13,209.46c6,21.16-3.07,43.66-21.45,59.51l-27.94-99C1182.7,173.84,1202.16,188.3,1208.13,209.46Z" transform="translate(0 -56.8)"/><ellipse class="cls-1" cx="1156.94" cy="242.08" rx="36.81" ry="51.45" transform="translate(9.64 469.58) rotate(-25.74)"/><path class="cls-2" d="M1190.09,226.1c9.55,19.81,4.55,43.53-10.81,62.33l-44.68-92.69C1158.87,195.43,1180.55,206.3,1190.09,226.1Z" transform="translate(0 -56.8)"/><ellipse class="cls-1" cx="1215.34" cy="213.46" rx="51.45" ry="36.81" transform="translate(999.65 1371.6) rotate(-89.89)"/><path class="cls-2" d="M1252.15,213.53c0,22-14.88,41.16-36.9,51.38l.18-102.9C1237.42,172.31,1252.19,191.54,1252.15,213.53Z" transform="translate(0 -56.8)"/><ellipse class="cls-1" cx="1196.5" cy="227.09" rx="36.81" ry="51.45" transform="translate(-15.57 51.66) rotate(-5.16)"/><path class="cls-2" d="M1233.16,223.78c2,21.9-11.05,42.35-32,54.56l-9.25-102.49C1214.71,184.09,1231.18,201.89,1233.16,223.78Z" transform="translate(0 -56.8)"/><ellipse class="cls-1" cx="1262.09" cy="220.94" rx="51.45" ry="36.81" transform="translate(659.16 1294.69) rotate(-71.86)"/><path class="cls-2" d="M1297.06,232.4c-6.84,20.89-26.89,34.53-51,37.43l32-97.79C1295.82,188.65,1303.91,211.5,1297.06,232.4Z" transform="translate(0 -56.8)"/><ellipse class="cls-1" cx="1236.99" cy="231.84" rx="51.45" ry="36.81" transform="matrix(0.13, -0.99, 0.99, 0.13, 845.93, 1371.27)"/><path class="cls-2" d="M1273.48,236.64c-2.86,21.8-20,38.91-43.2,46.22l13.41-102C1264.17,193.88,1276.35,214.84,1273.48,236.64Z" transform="translate(0 -56.8)"/><ellipse class="cls-1" cx="1276.62" cy="245.72" rx="51.45" ry="36.81" transform="translate(487.01 1221.71) rotate(-63.5)"/><path class="cls-2" d="M1309.56,262.14c-9.81,19.68-31.63,30.26-55.9,29.63l45.92-92.1C1314.69,218.68,1319.37,242.47,1309.56,262.14Z" transform="translate(0 -56.8)"/><path class="cls-3" d="M1300.56,291l-.26,1.59-2,11.66-14.81,88.82a8.28,8.28,0,0,1-8.18,6.92H1158.8a8.3,8.3,0,0,1-8.18-6.92l-14.81-88.82-2-11.66-.26-1.59Z" transform="translate(0 -56.8)"/><path class="cls-3" d="M1315.24,274v13.56a5.05,5.05,0,0,1-5.06,5.06H1124a5.06,5.06,0,0,1-5.06-5.06V274a5.06,5.06,0,0,1,5.06-5.06h186.2A5.05,5.05,0,0,1,1315.24,274Z" transform="translate(0 -56.8)"/><polygon class="cls-4" points="1300.3 235.8 1298.35 247.46 1135.81 247.46 1133.87 235.8 1300.3 235.8"/><path class="cls-6" d="M1315.24,274v13.56a5.05,5.05,0,0,1-5.06,5.06h-9.88l-2,11.66-14.81,88.82a8.28,8.28,0,0,1-8.18,6.92h-58.28V268.92h93.1A5.05,5.05,0,0,1,1315.24,274Z" transform="translate(0 -56.8)"/><rect class="cls-1" x="670.22" y="124.07" width="11.51" height="200.51"/><ellipse class="cls-1" cx="679.14" cy="136.98" rx="36.81" ry="51.45" transform="translate(-5.38 -26.72) rotate(-2.53)"/><path class="cls-2" d="M715.91,135.35c1,22-13,41.8-34.5,53L676.87,85.57C699.3,94.86,714.94,113.39,715.91,135.35Z" transform="translate(0 -56.8)"/><ellipse class="cls-1" cx="728.93" cy="153.36" rx="51.45" ry="36.81" transform="translate(277.6 689.15) rotate(-64.59)"/><path class="cls-2" d="M762.18,169.16c-9.44,19.86-31,30.84-55.33,30.68L751,106.89C766.48,125.6,771.61,149.3,762.18,169.16Z" transform="translate(0 -56.8)"/><rect class="cls-1" x="684.34" y="187.97" width="11.51" height="64.78" transform="translate(167.1 -337.71) rotate(26.08)"/><ellipse class="cls-1" cx="634.21" cy="225.48" rx="36.81" ry="51.45" transform="translate(30.95 467.26) rotate(-45.9)"/><path class="cls-2" d="M659.83,199.05c15.79,15.3,19.27,39.29,11.34,62.24l-73.91-71.61C620,181,644,183.75,659.83,199.05Z" transform="translate(0 -56.8)"/><path class="cls-3" d="M759.45,291l-.26,1.59-1.94,11.66-14.82,88.82a8.28,8.28,0,0,1-8.18,6.92H617.69a8.3,8.3,0,0,1-8.18-6.92L594.7,304.26l-1.94-11.66-.27-1.59Z" transform="translate(0 -56.8)"/><path class="cls-3" d="M774.13,274v13.56a5.05,5.05,0,0,1-5.06,5.06H582.87a5.05,5.05,0,0,1-5-5.06V274a5.05,5.05,0,0,1,5-5.06h186.2A5.05,5.05,0,0,1,774.13,274Z" transform="translate(0 -56.8)"/><polygon class="cls-4" points="759.19 235.8 757.25 247.46 594.7 247.46 592.76 235.8 759.19 235.8"/><path class="cls-6" d="M774.13,274v13.56a5.05,5.05,0,0,1-5.06,5.06h-9.88l-1.94,11.66-14.82,88.82a8.28,8.28,0,0,1-8.18,6.92H676V268.92h93.1A5.05,5.05,0,0,1,774.13,274Z" transform="translate(0 -56.8)"/><path class="cls-2" d="M507,118.37a112,112,0,0,0-60.1,131l-36.69,10.19a112,112,0,0,1,78-137.65,110.7,110.7,0,0,1,17-3.33Z" transform="translate(0 -56.8)"/><path class="cls-1" d="M507,118.37a112,112,0,0,0-60.1,131l-10.47,2.9c-14.49-55.8,15.61-113.7,68.76-133.69Z" transform="translate(0 -56.8)"/><path class="cls-2" d="M275.31,161.1a90.91,90.91,0,0,1,75.43,89.37h30.9a91,91,0,0,0-104.87-89.61C276.28,160.93,275.79,161,275.31,161.1Z" transform="translate(0 -56.8)"/><path class="cls-1" d="M275.31,161.1a90.91,90.91,0,0,1,75.43,89.37h8.81c-.78-46.78-36.88-85.51-82.78-89.61C276.28,160.93,275.79,161,275.31,161.1Z" transform="translate(0 -56.8)"/><path class="cls-7" d="M409.75,262.16,394.57,251A107.29,107.29,0,0,0,371.24,97.19c42.19,37.54,49.69,102,16.55,148.89L379,239.66a112,112,0,0,0-9.95-143.77l.95.46c.22.12.45.25.68.36a114,114,0,0,1,14.69,9.11A112,112,0,0,1,409.75,262.16Z" transform="translate(0 -56.8)"/><path class="cls-1" d="M387.79,246.08,379,239.66a112,112,0,0,0-9.95-143.77l.95.46c.22.12.45.25.68.36l.53.48C413.43,134.73,420.93,199.2,387.79,246.08Z" transform="translate(0 -56.8)"/><path class="cls-2" d="M417.15,185.19A106.81,106.81,0,0,1,394.57,251l-6.78-4.95c33.14-46.88,25.64-111.35-16.55-148.89A107.16,107.16,0,0,1,417.15,185.19Z" transform="translate(0 -56.8)"/><path class="cls-1" d="M387.79,246.08,379,239.66a112,112,0,0,0-9.95-143.77l.95.46,1.21.84C413.43,134.73,420.93,199.2,387.79,246.08Z" transform="translate(0 -56.8)"/><path class="cls-7" d="M405,273.27,386.65,269a107.27,107.27,0,0,0-81.94-132.27c53.55,17.92,85.8,74.24,73.76,130.38l-10.58-2.46a112,112,0,0,0-65.68-128.28l1.05.06c.25,0,.52.05.78.06a113.51,113.51,0,0,1,17.08,2.6A112,112,0,0,1,405,273.27Z" transform="translate(0 -56.8)"/><path class="cls-1" d="M378.47,267.13l-10.58-2.46a112,112,0,0,0-65.68-128.28l1.05.06c.25,0,.52.05.78.06s.45.15.67.24C358.26,154.67,390.51,211,378.47,267.13Z" transform="translate(0 -56.8)"/><path class="cls-2" d="M381.52,199.59A106.8,106.8,0,0,1,386.65,269l-8.18-1.89c12-56.14-20.21-112.46-73.76-130.38A107.11,107.11,0,0,1,381.52,199.59Z" transform="translate(0 -56.8)"/><path class="cls-1" d="M378.47,267.13l-10.58-2.46a112,112,0,0,0-65.68-128.28l1.05.06c.48.09,1,.19,1.45.3C358.26,154.67,390.51,211,378.47,267.13Z" transform="translate(0 -56.8)"/><path class="cls-7" d="M432.32,247.08l14.53.35a82.8,82.8,0,0,1,86.74-83.07c-43.48,3.08-78.44,38.95-80.26,83.23l8.37.21a86.48,86.48,0,0,1,73.83-83.22l-.8-.16-.59-.1A84.87,84.87,0,0,0,520.87,163,86.45,86.45,0,0,0,432.32,247.08Z" transform="translate(0 -56.8)"/><path class="cls-1" d="M453.33,247.59l8.37.21a86.48,86.48,0,0,1,73.83-83.22l-.8-.16-.59-.1a5.09,5.09,0,0,0-.55,0C490.11,167.44,455.15,203.31,453.33,247.59Z" transform="translate(0 -56.8)"/><path class="cls-2" d="M464.06,196.53a82.45,82.45,0,0,0-17.21,50.9l6.48.16c1.82-44.28,36.78-80.15,80.26-83.23A82.7,82.7,0,0,0,464.06,196.53Z" transform="translate(0 -56.8)"/><path class="cls-1" d="M453.33,247.59l8.37.21a86.48,86.48,0,0,1,73.83-83.22l-.8-.16c-.37,0-.76,0-1.14-.06C490.11,167.44,455.15,203.31,453.33,247.59Z" transform="translate(0 -56.8)"/><path class="cls-3" d="M491,238.48v12.87a5.44,5.44,0,0,1-4.6,5.37,4.72,4.72,0,0,1-.85.07H323.05a4.8,4.8,0,0,1-.85-.07,5.43,5.43,0,0,1-4.59-5.37V238.48a5.44,5.44,0,0,1,5.44-5.44H485.5A5.45,5.45,0,0,1,491,238.48Z" transform="translate(0 -56.8)"/><path class="cls-3" d="M475.88,256.79l-.58,11.66-6.24,124.83A7.07,7.07,0,0,1,462,400H346.56a7.08,7.08,0,0,1-7.07-6.72l-6.24-124.83-.58-11.66Z" transform="translate(0 -56.8)"/><path class="cls-5" d="M491,238.48v12.87a5.44,5.44,0,0,1-4.6,5.37,4.72,4.72,0,0,1-.85.07h-9.62l-.58,11.66-6.24,124.83A7.07,7.07,0,0,1,462,400H404.28V233H485.5A5.45,5.45,0,0,1,491,238.48Z" transform="translate(0 -56.8)"/><path class="cls-4" d="M486.35,256.72a4.72,4.72,0,0,1-.85.07h-9.62l-.58,11.66h-142l-.58-11.66h-9.62a4.8,4.8,0,0,1-.85-.07Z" transform="translate(0 -56.8)"/><ellipse class="cls-1" cx="188.39" cy="247.85" rx="26.56" ry="7.74" transform="translate(-105.59 88.58) rotate(-33.55)"/><path class="cls-2" d="M192.66,254.3c-9.45,6.27-19.44,9.15-26.41,8.23l44.27-29.36C208.66,240,202.12,248,192.66,254.3Z" transform="translate(0 -56.8)"/><path class="cls-1" d="M110.9,279.47c-17.25-9.79-26.32-28.4-40.69-41.4C63,231.55,54.65,226.92,45,225.36c-12.62-2-25.8-1.1-38.36.86-3.93.61-2.26,6.58,1.64,6,12.56-2,26.76-3.12,39.23,0,9.16,2.28,16.54,8,22.93,14.79,12.23,12.89,21.5,28.86,37.35,37.85,3.47,2,6.6-3.38,3.13-5.35Z" transform="translate(0 -56.8)"/><path class="cls-1" d="M139.12,274.8c.86-13.1,1.64-26.27-.15-39.33a86.49,86.49,0,0,0-12.47-33.91c-6.36-10.28-14.17-19.65-21.82-29Q91.1,156,76.79,140.13c-2.67-3-7,1.42-4.38,4.38,16.68,18.59,34.35,37.62,47.82,58.73a82,82,0,0,1,12.64,33.06c1.78,12.74.89,25.71.06,38.5-.26,4,5.93,4,6.19,0Z" transform="translate(0 -56.8)"/><path class="cls-1" d="M172.31,282.3a533.7,533.7,0,0,1,1.32-82.23c2.06-21.87,9.18-54.46,37.05-54.91,4-.07,4-6.26,0-6.2-27.29.45-39.09,28.34-42.18,51.45-4,30.31-4.21,61.41-2.39,91.89.24,4,6.44,4,6.2,0Z" transform="translate(0 -56.8)"/><path class="cls-1" d="M185.44,286c0-37.7,45.43-56.14,77.54-55.28,4,.1,4-6.09,0-6.2-35.64-1-83.72,20.24-83.74,61.48,0,4,6.2,4,6.2,0Z" transform="translate(0 -56.8)"/><path class="cls-3" d="M228,291l-.27,1.59-1.94,11.66-14.82,88.82a8.28,8.28,0,0,1-8.18,6.92H86.19A8.28,8.28,0,0,1,78,393.08L63.2,304.26,61.26,292.6,61,291Z" transform="translate(0 -56.8)"/><path class="cls-3" d="M242.63,274v13.56a5.05,5.05,0,0,1-5.06,5.06H51.37a5.05,5.05,0,0,1-5-5.06V274a5.05,5.05,0,0,1,5-5.06h186.2A5.05,5.05,0,0,1,242.63,274Z" transform="translate(0 -56.8)"/><polygon class="cls-4" points="227.69 235.8 225.75 247.46 63.2 247.46 61.26 235.8 227.69 235.8"/><path class="cls-6" d="M242.63,274v13.56a5.05,5.05,0,0,1-5.06,5.06h-9.88l-1.94,11.66-14.82,88.82a8.28,8.28,0,0,1-8.18,6.92H144.47V268.92h93.1A5.05,5.05,0,0,1,242.63,274Z" transform="translate(0 -56.8)"/><ellipse class="cls-1" cx="114.85" cy="217.86" rx="6.99" ry="23.97" transform="translate(-131.22 150.85) rotate(-59.83)"/><path class="cls-2" d="M111.34,223.9c-8.86-5.14-15.18-12.07-17.22-18.09l41.46,24.1C129.34,231.12,120.19,229.05,111.34,223.9Z" transform="translate(0 -56.8)"/><ellipse class="cls-1" cx="100.07" cy="193.5" rx="5.83" ry="19.98" transform="translate(-114.33 175.27) rotate(-72.85)"/><path class="cls-2" d="M98.36,199.06c-8.16-2.51-14.6-6.95-17.38-11.45l38.19,11.78C114.33,201.54,106.51,201.58,98.36,199.06Z" transform="translate(0 -56.8)"/><ellipse class="cls-1" cx="89.83" cy="172.44" rx="4.44" ry="15.24" transform="translate(-101.43 150.64) rotate(-72.85)"/><path class="cls-2" d="M88.52,176.69c-6.22-1.92-11.13-5.31-13.25-8.74l29.13,9C100.71,178.57,94.75,178.61,88.52,176.69Z" transform="translate(0 -56.8)"/><ellipse class="cls-1" cx="76.68" cy="155.22" rx="3.75" ry="12.85" transform="translate(-94.25 125.93) rotate(-72.85)"/><path class="cls-2" d="M75.58,158.8c-5.25-1.62-9.39-4.47-11.18-7.36L89,159C85.85,160.39,80.82,160.42,75.58,158.8Z" transform="translate(0 -56.8)"/><ellipse class="cls-1" cx="67.78" cy="144.23" rx="2.77" ry="9.52" transform="translate(-90.02 109.67) rotate(-72.85)"/><path class="cls-2" d="M67,146.88c-3.89-1.2-6.95-3.31-8.28-5.46L76.87,147C74.57,148.06,70.84,148.08,67,146.88Z" transform="translate(0 -56.8)"/><ellipse class="cls-1" cx="73.52" cy="133.19" rx="2.77" ry="9.52" transform="translate(-31.04 -34.12) rotate(-14.52)"/><path class="cls-2" d="M76.21,132.49c1,3.94.83,7.66-.3,9.91L71.14,124C73.22,125.4,75.19,128.56,76.21,132.49Z" transform="translate(0 -56.8)"/><ellipse class="cls-1" cx="85.63" cy="140.67" rx="9.52" ry="2.77" transform="translate(-59.86 161.01) rotate(-86.6)"/><path class="cls-2" d="M88.4,140.83c-.24,4.06-1.57,7.54-3.34,9.34l1.13-19C87.73,133.16,88.64,136.77,88.4,140.83Z" transform="translate(0 -56.8)"/><ellipse class="cls-1" cx="97.74" cy="154.51" rx="3.52" ry="12.09" transform="translate(-10.99 -49.28) rotate(-4.17)"/><path class="cls-2" d="M101.25,154.25c.38,5.15-.71,9.75-2.63,12.31l-1.76-24.11C99.13,144.7,100.87,149.1,101.25,154.25Z" transform="translate(0 -56.8)"/><ellipse class="cls-1" cx="113.72" cy="170.08" rx="15.67" ry="4.57" transform="translate(-68.02 207.25) rotate(-83.58)"/><path class="cls-2" d="M118.26,170.59c-.75,6.66-3.23,12.26-6.3,15.06l3.51-31.15C117.84,157.92,119,163.93,118.26,170.59Z" transform="translate(0 -56.8)"/><ellipse class="cls-1" cx="130.16" cy="186.3" rx="20.78" ry="6.06" transform="translate(-69.53 237.99) rotate(-83.58)"/><path class="cls-2" d="M136.18,187c-1,8.82-4.28,16.25-8.34,20l4.65-41.3C135.62,170.18,137.17,178.15,136.18,187Z" transform="translate(0 -56.8)"/><ellipse class="cls-1" cx="146.24" cy="211.7" rx="20.78" ry="6.06" transform="translate(-111.01 159.96) rotate(-56.49)"/><path class="cls-2" d="M151.29,215.05c-4.9,7.4-11.22,12.52-16.52,14l22.94-34.65C158.44,199.83,156.19,207.65,151.29,215.05Z" transform="translate(0 -56.8)"/><ellipse class="cls-1" cx="147.04" cy="247.85" rx="9.38" ry="32.16" transform="translate(-138.03 148.78) rotate(-50.89)"/><path class="cls-2" d="M141.12,255.12c-10.66-8.67-17.59-19.16-19-27.56L172,268.14C163.48,268.44,151.79,263.8,141.12,255.12Z" transform="translate(0 -56.8)"/><ellipse class="cls-1" cx="152.81" cy="221.92" rx="6.85" ry="23.48" transform="translate(-115.78 143.69) rotate(-50.89)"/><path class="cls-2" d="M148.49,227.24c-7.78-6.33-12.84-14-13.9-20.13L171,236.74C164.81,237,156.28,233.56,148.49,227.24Z" transform="translate(0 -56.8)"/><ellipse class="cls-1" cx="155.96" cy="196.37" rx="5.79" ry="19.85" transform="translate(-90.76 94.68) rotate(-41.23)"/><path class="cls-2" d="M151.61,200.18c-5.59-6.38-8.72-13.48-8.73-18.74l26.17,29.85C163.83,210.6,157.2,206.56,151.61,200.18Z" transform="translate(0 -56.8)"/><ellipse class="cls-1" cx="162.27" cy="174.95" rx="5.36" ry="18.38" transform="translate(-65.93 48.41) rotate(-30.16)"/><path class="cls-2" d="M157.64,177.64c-3.95-6.79-5.53-13.8-4.61-18.59l18.48,31.79C166.89,189.28,161.58,184.43,157.64,177.64Z" transform="translate(0 -56.8)"/><ellipse class="cls-1" cx="170.11" cy="156.44" rx="4.62" ry="15.86" transform="translate(-33.02 -10.59) rotate(-14.12)"/><path class="cls-2" d="M165.62,157.57c-1.65-6.58-1.29-12.77.62-16.51L174,171.82C170.52,169.42,167.28,164.14,165.62,157.57Z" transform="translate(0 -56.8)"/><ellipse class="cls-1" cx="183.43" cy="138.98" rx="4.46" ry="15.29" transform="translate(-3.51 -52.04) rotate(-1.47)"/><path class="cls-2" d="M179,139.09c-.16-6.53,1.48-12.28,4.07-15.4l.78,30.58C181.08,151.28,179.14,145.63,179,139.09Z" transform="translate(0 -56.8)"/><ellipse class="cls-1" cx="201" cy="132.64" rx="11.9" ry="3.47" transform="translate(10.55 223.23) rotate(-71.16)"/><path class="cls-2" d="M197.72,131.52c1.64-4.81,4.39-8.56,7.12-10.14l-7.68,22.53C196,141,196.07,136.33,197.72,131.52Z" transform="translate(0 -56.8)"/><ellipse class="cls-1" cx="213.12" cy="136.58" rx="8.3" ry="2.42" transform="translate(-39.87 71.26) rotate(-30.73)"/><path class="cls-2" d="M211.88,134.5c3.05-1.81,6.21-2.56,8.37-2.16L206,140.82C206.67,138.73,208.83,136.32,211.88,134.5Z" transform="translate(0 -56.8)"/><ellipse class="cls-1" cx="113.88" cy="243.37" rx="9.38" ry="32.16" transform="translate(-140.18 99.11) rotate(-45.93)"/><path class="cls-2" d="M107.36,250.1c-9.87-9.56-15.87-20.61-16.59-29.11L137,265.74C128.48,265.3,117.24,259.66,107.36,250.1Z" transform="translate(0 -56.8)"/><ellipse class="cls-1" cx="96.02" cy="236.48" rx="32.16" ry="9.38" transform="translate(-147.09 257.38) rotate(-85.63)"/><path class="cls-2" d="M105.37,237.19c-1.05,13.71-5.73,25.38-11.81,31.36l4.91-64.14C103.57,211.23,106.41,223.49,105.37,237.19Z" transform="translate(0 -56.8)"/><ellipse class="cls-1" cx="204.73" cy="291.01" rx="9.38" ry="32.16" transform="translate(-115.95 80.05) rotate(-29.2)"/><path class="cls-2" d="M212.91,286.43c6.71,12,9.27,24.32,7.51,32.66L189,262.93C197.06,265.8,206.21,274.44,212.91,286.43Z" transform="translate(0 -56.8)"/><ellipse class="cls-1" cx="186.95" cy="226.24" rx="26.56" ry="7.74" transform="translate(-105.55 145.33) rotate(-45.72)"/><path class="cls-2" d="M192.49,231.65c-7.92,8.12-17.07,13-24.08,13.6l37.08-38C205.1,214.25,200.41,223.52,192.49,231.65Z" transform="translate(0 -56.8)"/><ellipse class="cls-1" cx="183.76" cy="205.51" rx="21.07" ry="6.14" transform="translate(-91.92 149.48) rotate(-48.36)"/><path class="cls-2" d="M188.35,209.59c-6,6.73-13,11-18.59,11.66l28-31.49C197.71,195.34,194.33,202.86,188.35,209.59Z" transform="translate(0 -56.8)"/><ellipse class="cls-1" cx="182.32" cy="187.41" rx="16.07" ry="4.68" transform="translate(-78.88 142.33) rotate(-48.36)"/><path class="cls-2" d="M185.82,190.53c-4.56,5.13-9.95,8.35-14.17,8.89l21.35-24C193,179.66,190.39,185.4,185.82,190.53Z" transform="translate(0 -56.8)"/><ellipse class="cls-1" cx="189.53" cy="170.15" rx="16.07" ry="4.68" transform="translate(-50.02 26.8) rotate(-22.05)"/><path class="cls-2" d="M191.29,174.5c-6.36,2.57-12.62,3.08-16.65,1.69l29.79-12.07C202.51,167.92,197.66,171.92,191.29,174.5Z" transform="translate(0 -56.8)"/><ellipse class="cls-1" cx="194.19" cy="157.72" rx="3.65" ry="12.51" transform="translate(22.05 282.45) rotate(-85.61)"/><path class="cls-2" d="M193.91,161.36c-5.33-.41-9.88-2.23-12.2-4.6l25,1.92C204,160.66,199.24,161.77,193.91,161.36Z" transform="translate(0 -56.8)"/><ellipse class="cls-1" cx="202.08" cy="151.12" rx="2.5" ry="8.58" transform="translate(-2.19 242.46) rotate(-72.74)"/><path class="cls-2" d="M201.33,153.51c-3.5-1.09-6.26-3-7.45-4.94l16.39,5.09C208.19,154.58,204.84,154.59,201.33,153.51Z" transform="translate(0 -56.8)"/><ellipse class="cls-1" cx="210.77" cy="146.41" rx="2.21" ry="7.58" transform="translate(8.42 247.45) rotate(-72.74)"/><path class="cls-2" d="M210.12,148.52c-3.1-1-5.53-2.65-6.59-4.36l14.48,4.5C216.17,149.47,213.21,149.48,210.12,148.52Z" transform="translate(0 -56.8)"/><ellipse class="cls-1" cx="63.68" cy="273.5" rx="26.56" ry="7.74" transform="translate(-116.57 1.37) rotate(-26.82)"/><path class="cls-2" d="M67.18,280.41c-10.13,5.12-20.38,6.82-27.2,5.08l47.4-24C84.74,268,77.3,275.29,67.18,280.41Z" transform="translate(0 -56.8)"/><ellipse class="cls-1" cx="78.48" cy="222.67" rx="26.56" ry="7.74" transform="translate(-149.73 226.38) rotate(-85.44)"/><path class="cls-2" d="M86.2,223.28c-.91,11.32-4.8,20.95-9.83,25.86l4.22-52.95C84.78,201.84,87.1,212,86.2,223.28Z" transform="translate(0 -56.8)"/><ellipse class="cls-1" cx="190.33" cy="230.43" rx="7.74" ry="26.56" transform="translate(-36.1 -21.45) rotate(-9.7)"/><path class="cls-2" d="M198,229.12c1.91,11.19.51,21.48-3.16,27.49l-9-52.36C191.31,208.69,196.05,217.94,198,229.12Z" transform="translate(0 -56.8)"/><ellipse class="cls-1" cx="217.83" cy="270.21" rx="7.74" ry="26.56" transform="matrix(0.82, -0.58, 0.58, 0.82, -116.01, 118.47)"/><path class="cls-2" d="M224.15,265.74c6.55,9.27,9.73,19.16,9,26.16L202.5,248.52C209.34,250.18,217.6,256.47,224.15,265.74Z" transform="translate(0 -56.8)"/><ellipse class="cls-1" cx="62.53" cy="214.88" rx="6.23" ry="21.38" transform="translate(-35.3 -43.2) rotate(-9.7)"/><path class="cls-2" d="M68.67,213.83c1.54,9,.42,17.29-2.54,22.12l-7.2-42.15C63.32,197.38,67.14,204.82,68.67,213.83Z" transform="translate(0 -56.8)"/><ellipse class="cls-1" cx="45.92" cy="245.41" rx="21.38" ry="6.23" transform="translate(-53.95 -40.22) rotate(-12.98)"/><path class="cls-2" d="M47.32,251.48c-8.91,2.05-17.24,1.4-22.24-1.27l41.67-9.61C63.43,245.19,56.22,249.43,47.32,251.48Z" transform="translate(0 -56.8)"/><ellipse class="cls-1" cx="55.04" cy="259.12" rx="23.69" ry="6.91" transform="translate(-56.8 -37.82) rotate(-12.98)"/><path class="cls-2" d="M56.59,265.85c-9.87,2.27-19.11,1.55-24.64-1.41L78.13,253.8C74.45,258.88,66.45,263.57,56.59,265.85Z" transform="translate(0 -56.8)"/><ellipse class="cls-1" cx="210.98" cy="218.41" rx="6.23" ry="21.38" transform="translate(-33.78 -18.14) rotate(-9.7)"/><path class="cls-2" d="M217.12,217.36c1.54,9,.41,17.29-2.54,22.12l-7.2-42.14C211.77,200.91,215.58,208.36,217.12,217.36Z" transform="translate(0 -56.8)"/><ellipse class="cls-1" cx="234.43" cy="254.78" rx="6.23" ry="21.38" transform="translate(-97.9 100.87) rotate(-31.09)"/><path class="cls-2" d="M239.77,251.57c4.72,7.82,6.69,15.95,5.7,21.52l-22.08-36.61C228.79,238.21,235.05,243.74,239.77,251.57Z" transform="translate(0 -56.8)"/><ellipse class="cls-1" cx="29.41" cy="236.48" rx="13.41" ry="3.91" transform="translate(-111.12 -12.78) rotate(-29.05)"/><path class="cls-2" d="M31.3,239.89c-5,2.78-10.14,3.84-13.61,3.1l23.44-13C39.92,233.31,36.31,237.11,31.3,239.89Z" transform="translate(0 -56.8)"/><ellipse class="cls-1" cx="46.18" cy="217.18" rx="3.91" ry="13.41" transform="translate(-96.69 -9.59) rotate(-28.05)"/><path class="cls-2" d="M49.63,215.35c2.69,5.05,3.66,10.21,2.85,13.67l-12.6-23.67C43.2,206.61,46.94,210.29,49.63,215.35Z" transform="translate(0 -56.8)"/><ellipse class="cls-1" cx="235.85" cy="217.46" rx="13.41" ry="3.91" transform="translate(-31.81 337.51) rotate(-76.13)"/><path class="cls-2" d="M239.64,218.4c-1.37,5.56-4.1,10-7,12.08l6.43-26C240.69,207.6,241,212.84,239.64,218.4Z" transform="translate(0 -56.8)"/><ellipse class="cls-1" cx="251.18" cy="241" rx="3.91" ry="13.41" transform="translate(-95.1 148.67) rotate(-37.96)"/><path class="cls-2" d="M254.26,238.59c3.53,4.52,5.36,9.43,5.17,13l-16.49-21.14C246.42,231.1,250.74,234.08,254.26,238.59Z" transform="translate(0 -56.8)"/><ellipse class="cls-1" cx="32.62" cy="218.48" rx="2.66" ry="9.11" transform="translate(-110.74 -6.38) rotate(-31.97)"/><path class="cls-2" d="M34.88,217.07c2.06,3.3,3,6.76,2.57,9.14L27.8,210.75C30.11,211.45,32.82,213.77,34.88,217.07Z" transform="translate(0 -56.8)"/><ellipse class="cls-1" cx="24.03" cy="220.62" rx="1.75" ry="5.99" transform="matrix(0.85, -0.53, 0.53, 0.85, -112.31, -11.29)"/><path class="cls-2" d="M25.51,219.7a9.47,9.47,0,0,1,1.66,6l-6.29-10.19A9.46,9.46,0,0,1,25.51,219.7Z" transform="translate(0 -56.8)"/><ellipse class="cls-1" cx="17.79" cy="232.87" rx="7.1" ry="2.07" transform="translate(-140.72 4.54) rotate(-38.37)"/><path class="cls-2" d="M19.07,234.49c-2.37,1.88-5,2.87-6.84,2.78l11.12-8.81C23,230.31,21.45,232.61,19.07,234.49Z" transform="translate(0 -56.8)"/><ellipse class="cls-1" cx="4.72" cy="233.25" rx="6.02" ry="1.76" transform="translate(-143.78 -3.48) rotate(-38.37)"/><path class="cls-2" d="M5.81,234.63A9.53,9.53,0,0,1,0,237l9.44-7.48A9.55,9.55,0,0,1,5.81,234.63Z" transform="translate(0 -56.8)"/><ellipse class="cls-1" cx="265.02" cy="219.7" rx="7.1" ry="2.07" transform="translate(-53.24 294.12) rotate(-62.06)"/><path class="cls-2" d="M266.85,220.67c-1.42,2.68-3.39,4.63-5.15,5.3l6.65-12.54C268.78,215.27,268.27,218,266.85,220.67Z" transform="translate(0 -56.8)"/><ellipse class="cls-1" cx="13.61" cy="222.67" rx="1.26" ry="4.32" transform="translate(-152.43 16.88) rotate(-44.6)"/><path class="cls-2" d="M14.51,221.78a6.89,6.89,0,0,1,2.13,4l-6.07-6.16A6.88,6.88,0,0,1,14.51,221.78Z" transform="translate(0 -56.8)"/><ellipse class="cls-1" cx="7.53" cy="223.97" rx="1.26" ry="4.32" transform="translate(-181.03 46.07) rotate(-55.37)"/><path class="cls-2" d="M8.25,222.93a6.86,6.86,0,0,1,2.84,3.5L4,221.51A6.87,6.87,0,0,1,8.25,222.93Z" transform="translate(0 -56.8)"/><ellipse class="cls-1" cx="251.41" cy="219.6" rx="9.11" ry="2.66" transform="translate(-58.19 287.63) rotate(-63.1)"/><path class="cls-2" d="M253.78,220.81c-1.76,3.47-4.26,6-6.5,6.92l8.25-16.25C256.13,213.82,255.54,217.33,253.78,220.81Z" transform="translate(0 -56.8)"/><ellipse class="cls-1" cx="265.02" cy="235.18" rx="2.66" ry="9.11" transform="translate(-82.27 108.13) rotate(-30.15)"/><path class="cls-2" d="M267.32,233.85c2,3.37,2.74,6.84,2.28,9.21l-9.15-15.76C262.73,228.08,265.37,230.48,267.32,233.85Z" transform="translate(0 -56.8)"/><path class="cls-3" d="M952.61,233a41.2,41.2,0,0,0-5.16,10.18c-1.32,3.93-7.56,2.24-6.24-1.72a46.77,46.77,0,0,1,3.84-8.46Z" transform="translate(0 -56.8)"/><path class="cls-2" d="M1025.06,220.88a48.12,48.12,0,0,0-42.89-9.25c-11.14,3-22.58,11.23-29.56,21.41h-7.56c7.52-13.11,21.39-23.87,35.4-27.66a55,55,0,0,1,49.19,10.92C1032.85,219,1028.26,223.52,1025.06,220.88Z" transform="translate(0 -56.8)"/><path class="cls-3" d="M934.94,240.5c-.08,3-3.51,3.86-5.33,2.49-.2-.85-.42-1.66-.66-2.48-.14-.47-.3-.95-.45-1.43,0-2-.08-4.05-.25-6h6.49A73.93,73.93,0,0,1,934.94,240.5Z" transform="translate(0 -56.8)"/><path class="cls-2" d="M929,240.51c.24.82.46,1.63.66,2.48a2.86,2.86,0,0,1-1.14-2.49c0-.48,0-.94,0-1.42C928.65,239.56,928.81,240,929,240.51Z" transform="translate(0 -56.8)"/><path class="cls-2" d="M934.74,233h-6.49a66,66,0,0,0-50.54-58.79c-4.05-1-2.33-7.21,1.72-6.23A72.53,72.53,0,0,1,934.74,233Z" transform="translate(0 -56.8)"/><path class="cls-3" d="M967.08,233a10.58,10.58,0,0,0-2.36,6.31c-.18,4.15-6.65,4.17-6.47,0a20.33,20.33,0,0,1,1.22-6.31Z" transform="translate(0 -56.8)"/><path class="cls-2" d="M1057.56,331.59c-2-13.67-3.61-27.43-6-41-1.81-10.31-6.53-19.5-16.53-23.9a23.27,23.27,0,0,0-2.76-1,50.67,50.67,0,0,0-2.85-15.85,44.91,44.91,0,0,0-18.69-23.63c-13.37-8.25-44.67-11.15-51.26,6.82h7.61c3.94-4.93,12-6.87,17.87-7.13a39.74,39.74,0,0,1,24.15,7,1.24,1.24,0,0,1,.23.17,35.73,35.73,0,0,1,5.79,5.06,39.79,39.79,0,0,1,10.33,26.82c-4.45.24-8.41,2.24-9,7.46-.76,7.29,7.48,11.19,12.26,5.39a14.17,14.17,0,0,0,2.73-5.57c8.65,3.13,12.35,11.48,13.83,20.1,1.66,9.51,2.82,19.13,4.21,28.68,1.43,9.85,3.8,20.1,3,30.1-.76,9.73-7.3,21.95-18.86,20.28-4.07-.58-5.83,5.66-1.72,6.25,9.52,1.37,17.91-3.43,22.81-11.61C1061,355.63,1059.18,342.92,1057.56,331.59Zm-33.27-59.91c-.08-.17,0-.29.23-.36C1024.43,271.64,1024.34,271.79,1024.29,271.68Z" transform="translate(0 -56.8)"/><path class="cls-3" d="M1000.07,256.79l-.58,11.66-6.25,124.83a7.06,7.06,0,0,1-7.07,6.72H870.75a7.07,7.07,0,0,1-7.07-6.72l-6.25-124.83-.58-11.66Z" transform="translate(0 -56.8)"/><path class="cls-3" d="M1015.13,238.48v12.86a5.43,5.43,0,0,1-4.59,5.38,5.87,5.87,0,0,1-.86.07H847.24a5.85,5.85,0,0,1-.85-.07,5.43,5.43,0,0,1-4.59-5.38V238.48a5.43,5.43,0,0,1,5.44-5.44h14.44a37.52,37.52,0,0,1,5.16,4.91c2.82,3.08,7.39-1.5,4.58-4.56-.1-.12-.21-.24-.32-.35h3.13c-.48.68-.92,1.36-1.3,2-2.12,3.6,3.47,6.86,5.58,3.27l0,0c2.61,2.18,7.2-.8,5-3.93a7.35,7.35,0,0,1-.75-1.29h45.5c.17,2,.25,4,.25,6,.15.48.31,1,.45,1.43.24.82.46,1.63.66,2.48,1.82,1.37,5.25.54,5.33-2.49a73.93,73.93,0,0,0-.2-7.46h10.31a46.77,46.77,0,0,0-3.84,8.46c-1.32,4,4.92,5.65,6.24,1.72A41.2,41.2,0,0,1,952.61,233h6.86a20.33,20.33,0,0,0-1.22,6.31c-.18,4.17,6.29,4.15,6.47,0a10.58,10.58,0,0,1,2.36-6.31h42.6a5.45,5.45,0,0,1,5.44,5.06C1015.13,238.22,1015.13,238.35,1015.13,238.48Z" transform="translate(0 -56.8)"/><path class="cls-4" d="M1010.53,256.72a4.61,4.61,0,0,1-.84.07h-9.62l-.58,11.66H857.43l-.58-11.66h-9.61a4.72,4.72,0,0,1-.85-.07Z" transform="translate(0 -56.8)"/><path class="cls-5" d="M1015.13,238.48v12.87a5.44,5.44,0,0,1-4.6,5.37,4.61,4.61,0,0,1-.84.07h-9.62l-.58,11.66-6.25,124.83a7.06,7.06,0,0,1-7.07,6.72h-57.7V233h81.22A5.44,5.44,0,0,1,1015.13,238.48Z" transform="translate(0 -56.8)"/><path class="cls-3" d="M878.54,238.26A35.2,35.2,0,0,1,882.3,233h.45a7.35,7.35,0,0,0,.75,1.29C885.74,237.46,881.15,240.44,878.54,238.26Z" transform="translate(0 -56.8)"/><path class="cls-2" d="M986.93,315.22c-12.45-7.15-27.13-8.34-39.83-14.9a36.93,36.93,0,0,1-20-26.6c-1.1-5.51-1.41-11.25-1.93-16.93-.65-7.38-1.66-14.65-5.2-21.26a25,25,0,0,0-1.54-2.49,19,19,0,0,0-6.53-5.84,21.67,21.67,0,0,0-9.64-2.42h0l-.4,0a58.27,58.27,0,0,0-9.81.77c-5.61.95-11,3-9.48,7.16a3.35,3.35,0,0,0,.15.35h-6.59a9.39,9.39,0,0,1,0-2.54,11.65,11.65,0,0,1,3.47-6.85c2.71-2.68,6.49-4,10.44-4.6h0a71,71,0,0,1,9.49-.73,34.06,34.06,0,0,1,6.72.41h0c8.8,1.47,15.37,6.56,19.57,14.31a39.42,39.42,0,0,1,2.62,6c.15.48.31,1,.45,1.43.24.82.46,1.63.66,2.48a96.8,96.8,0,0,1,1.87,13.8c1,11.87,1.62,24,10.64,32.38,13,12.07,33.09,11.86,48.07,20.48C993.8,311.72,990.54,317.3,986.93,315.22Z" transform="translate(0 -56.8)"/><path class="cls-1" d="M1000.63,303.81c9.63,14.07,12.3,30.28,8.28,42.68-13-.74-27.15-9.11-36.78-23.18s1.71-25.21,13.55-10.77C977.14,299.35,991,289.73,1000.63,303.81Z" transform="translate(0 -56.8)"/><path class="cls-2" d="M1000.63,303.81c9.63,14.07,12.3,30.28,8.28,42.68l-23.23-33.95C976.79,298.79,991,289.73,1000.63,303.81Z" transform="translate(0 -56.8)"/><path class="cls-3" d="M866.84,238a37.52,37.52,0,0,0-5.16-4.91h9.42c.11.11.22.23.32.35C874.23,236.45,869.66,241,866.84,238Z" transform="translate(0 -56.8)"/><path class="cls-2" d="M872.71,332a29.4,29.4,0,0,1-13-11.62c-2.48-4.24-3.45-9.14-5.86-13.4-2.35-4.1-6.87-7.78-11.66-8-2.59-2.72-5.68-4.91-8.32-7.58A27.59,27.59,0,0,1,826,274.69c-1.26-12,4.61-22.93,12.53-31.49,1-1.12,2.14-2.31,3.29-3.49a50.06,50.06,0,0,1,7.53-6.67l.71-.47c4.6-2.92,8.32-2,11.64.47h9.42c-4.09-4.45-9-9.08-15.47-9-7,0-12.54,5.66-17.23,10.16-11.36,10.9-20.66,25-18.84,41.41a33.88,33.88,0,0,0,9,19.74c2.13,2.22,4.6,4.09,6.85,6.16-4.43,4-5.38,12.42-3,17.56,2.57,5.61,10,4.45,13.19.11a12.26,12.26,0,0,0,2-9.76c.48.77.93,1.62,1.36,2.47,1.79,3.57,2.73,7.48,4.67,11a35.5,35.5,0,0,0,15.83,14.79C873.18,339.42,876.47,333.85,872.71,332Zm-34.79-18.35c-1.79-2,.82-5.07,2.36-6.2a9.93,9.93,0,0,1,.83,2.57C841.58,312.57,840.36,316.48,837.92,313.69Z" transform="translate(0 -56.8)"/><path class="cls-1" d="M876.92,193.46c-22.53,2.78-43.34-4-55.54-16.32,8.84-14.93,27.39-26.53,49.92-29.31s28.76,17.46,4.44,22.62C896.57,168.42,899.45,190.69,876.92,193.46Z" transform="translate(0 -56.8)"/><path class="cls-2" d="M876.92,193.46c-22.53,2.78-43.34-4-55.54-16.32l54.36-6.69C897.44,168.34,899.45,190.69,876.92,193.46Z" transform="translate(0 -56.8)"/><path class="cls-1" d="M1042.92,199.26c20.77,17.63,31.72,41.49,30.74,62.29-20.37,4.34-45.68-2.61-66.45-20.24s-8-39.57,16.35-22.3C1004.84,202.28,1022.15,181.62,1042.92,199.26Z" transform="translate(0 -56.8)"/><path class="cls-2" d="M1042.92,199.26c20.77,17.63,31.72,41.49,30.74,62.29L1023.56,219C1004.07,201.57,1022.15,181.62,1042.92,199.26Z" transform="translate(0 -56.8)"/><path class="cls-1" d="M883.17,328.43c6.1,19.52,3.47,39-5.49,51.84-14.66-5.43-27.92-20-34-39.5s10.82-28.28,19.32-7.58C857.81,315.07,877.08,308.92,883.17,328.43Z" transform="translate(0 -56.8)"/><path class="cls-2" d="M883.17,328.43c6.1,19.52,3.47,39-5.49,51.84L863,333.19C857.61,314.31,877.08,308.92,883.17,328.43Z" transform="translate(0 -56.8)"/><path class="cls-3" d="M878.54,238.26l0,0c-2.11,3.59-7.7.33-5.58-3.27.38-.63.82-1.31,1.3-2h1.93a9.59,9.59,0,0,0,1.77,4.55A3.58,3.58,0,0,0,878.54,238.26Z" transform="translate(0 -56.8)"/><path class="cls-3" d="M882.3,233a35.2,35.2,0,0,0-3.76,5.22,3.58,3.58,0,0,1-.61-.67,9.59,9.59,0,0,1-1.77-4.55Z" transform="translate(0 -56.8)"/><path class="cls-2" d="M938.56,346.4c-2.17,3.54-7.76.29-5.59-3.28a41.6,41.6,0,0,0,2.94-36.79,39.72,39.72,0,0,0-11.13-15.86c-4.54-3.85-10.24-6.11-14.6-10.24-7-6.64-6.73-15-5.47-23.44.58-4,1.38-7.93,1.74-11.77a50.7,50.7,0,0,0-.08-12c-.54-3.55-1.72-6.7-4.07-8.26h0c-1.59-1-3.7-1.37-6.5-.6a23.8,23.8,0,0,0-3.71,1.35,29,29,0,0,0-9.48,7.16,3.27,3.27,0,0,0-.3.35h-8.07c.57-.83,1.23-1.68,1.94-2.54a45.17,45.17,0,0,1,13.91-11.45h0c5.46-2.73,11.28-3.54,16.21-.32h0c.35.23.7.49,1.05.76a14.64,14.64,0,0,1,4.58,7.71,32.29,32.29,0,0,1,1,5.84,68,68,0,0,1,.12,9.6c-.21,4.41-1.53,9.3-2.34,14.15-.88,5.17-1.19,10.3,1,14.77,3.64,7.49,13.68,10.36,19.5,16.06a46.7,46.7,0,0,1,10.9,17A47.94,47.94,0,0,1,938.56,346.4Z" transform="translate(0 -56.8)"/><path class="cls-1" d="M1049.38,395.5c-21.4,4.81-42,.3-55-10.41,7.08-15.19,23.81-28.11,45.21-32.92s29.29,14,6.41,21.32C1065.88,369.55,1070.77,390.69,1049.38,395.5Z" transform="translate(0 -56.8)"/><path class="cls-2" d="M1049.38,395.5c-21.4,4.81-42,.3-55-10.41l51.62-11.6C1066.71,369.4,1070.77,390.69,1049.38,395.5Z" transform="translate(0 -56.8)"/><path class="cls-1" d="M958.92,352.19c-15.19,22.61-37.67,36.18-58.45,37.55-6.59-19.75-2.54-45.69,12.65-68.31s38.42-12.37,24,13.74C951.64,314.69,974.11,329.57,958.92,352.19Z" transform="translate(0 -56.8)"/><path class="cls-2" d="M958.92,352.19c-15.19,22.61-37.67,36.18-58.45,37.55l36.65-54.57C952.25,313.84,974.11,329.57,958.92,352.19Z" transform="translate(0 -56.8)"/></svg>